<svg width="21" height="20" viewBox="0 0 21 20" fill="none" xmlns="http://www.w3.org/2000/svg">
<path d="M15.1562 7.93977C17.2824 6.60663 18.273 6.69237 19.7723 7.93977C20.0837 8.5324 20.0679 8.86529 19.7723 9.45784C18.3654 10.5925 17.3209 11.2069 15.1562 12.2771" stroke="#144E5A" stroke-width="1.2" stroke-linecap="round"/>
<path d="M1 1C3.34568 1.3253 4.53991 1.57306 6.53938 2.08434V4.90361M6.53938 4.90361C9.89758 5.07224 11.7855 5.10872 15.1562 5.12048C14.9499 10.0588 14.7003 12.7313 14.233 17.4819H5.61615C4.38991 12.8032 4.01791 10.105 4.07744 5.12048L6.53938 4.90361Z" stroke="#144E5A" stroke-width="1.2" stroke-linecap="round"/>
<path d="M6.23163 6.85541L7.15486 13.3614" stroke="#144E5A" stroke-width="1.2" stroke-linecap="round"/>
<path d="M7.15485 14.012L7.46259 15.747" stroke="#144E5A" stroke-width="1.2" stroke-linecap="round"/>
<path d="M2.23096 19H17.0027" stroke="#144E5A" stroke-width="1.2" stroke-linecap="round"/>
</svg>
