<svg width="21" height="20" viewBox="0 0 21 20" fill="none" xmlns="http://www.w3.org/2000/svg">
<path d="M4.02205 4.35936V8.63492C4.75946 8.90871 5.17331 8.88822 5.91082 8.63492V4.35936C5.1823 4.37701 4.83038 4.38644 4.3998 4.35936L3.6443 4.05397C3.43308 3.27026 3.39188 2.88233 3.6443 2.22159C3.82489 1.6547 4.13313 1.40784 4.77756 1C5.54006 1.24549 5.8601 1.52823 6.28857 2.22159C6.49507 3.02474 6.4735 3.4967 6.28857 4.35936" stroke="#144E5A" stroke-width="1.2" stroke-linecap="round"/>
<path d="M9.86257 5.27556V9.55112C10.6 9.82491 11.0138 9.80442 11.7513 9.55112V5.27556C11.0228 5.2932 10.6709 5.30264 10.2403 5.27556L9.48481 4.97017C9.27359 4.18646 9.2324 3.79853 9.48481 3.13779C9.66541 2.5709 9.97364 2.32404 10.6181 1.9162C11.3806 2.16169 11.7006 2.44443 12.1291 3.13779C12.3356 3.94093 12.314 4.4129 12.1291 5.27556" stroke="#144E5A" stroke-width="1.2" stroke-linecap="round"/>
<path d="M15.1511 4.66478V8.94034C15.8885 9.21413 16.3023 9.19364 17.0398 8.94034V4.66478C16.3113 4.68243 15.9594 4.69186 15.5288 4.66478L14.7733 4.35939C14.5621 3.57568 14.5209 3.18775 14.7733 2.52701C14.9539 1.96012 15.2622 1.71326 15.9066 1.30542C16.6691 1.55091 16.9891 1.83365 17.4176 2.52701C17.6241 3.33016 17.6025 3.80212 17.4176 4.66478" stroke="#144E5A" stroke-width="1.2" stroke-linecap="round"/>
<path d="M2.51102 11.3835C6.66631 12.6051 13.8436 12.6051 18.7544 11.3835V13.3686M18.7544 15.3536V17.7968C14.2214 19.6292 5.15529 19.3238 2.13326 17.186V15.3536C5.86523 16.6337 13.7936 16.9698 18.7544 15.3536ZM18.7544 15.3536V13.3686M18.7544 13.3686C14.9769 14.7428 6.66631 14.7428 2.13326 13.3686V11.3835C1.57204 11.1218 1.2966 10.9429 1 10.4673C1 10.4673 1 9.5511 1 8.94031M18.7544 11.0781C19.3445 10.9978 19.5747 10.8446 19.8877 10.4673C20.0348 9.79555 20.0401 9.45783 19.8877 8.94031" stroke="#144E5A" stroke-width="1.2" stroke-linecap="round"/>
<path d="M2.13324 13.5212V15.0482" stroke="#144E5A" stroke-width="1.2" stroke-linecap="round"/>
<path d="M19.8877 8.32954C18.3767 11.3835 2.88877 11.3835 1 8.32954C1.75551 6.80255 2.38948 6.91779 3.64428 6.80255" stroke="#144E5A" stroke-width="1.2" stroke-linecap="round"/>
<path d="M17.2434 6.80255L19.8877 8.32954" stroke="#144E5A" stroke-width="1.2" stroke-linecap="round"/>
<path d="M5.91083 6.19177H8.93286" stroke="#144E5A" stroke-width="1.2" stroke-linecap="round"/>
<path d="M11.5771 6.19177H14.5991" stroke="#144E5A" stroke-width="1.2" stroke-linecap="round"/>
</svg>
