<svg width="22" height="21" viewBox="0 0 22 21" fill="none" xmlns="http://www.w3.org/2000/svg">
<path d="M1.35278 10.4996H16.4325" stroke="#144E5A" stroke-width="1.2"/>
<path d="M16.4324 8.67281C15.6388 7.94207 1.74959 7.94208 1.35274 8.67281C0.55908 11.2304 1.35274 15.6148 1.35274 15.6148C3.05098 19.0241 4.76326 19.9004 8.89258 19.9993C12.579 20.0305 14.2543 19.1258 16.4324 15.6148C16.6701 13.0558 16.8293 10.865 16.4324 8.67281Z" stroke="#144E5A" stroke-width="1.2"/>
<path d="M16.8293 9.76889C18.2017 9.38163 18.838 9.34337 19.6071 9.76889C21.4243 11.1496 21.3631 12.1389 20.0039 14.1533C19.1136 15.0565 18.3438 15.3845 16.4324 15.6148" stroke="#144E5A" stroke-width="1.2"/>
<path d="M5.71793 1.36536C6.74306 1.71836 6.51162 2.82684 5.71793 3.55758C4.92425 4.28831 4.86189 5.51544 5.71793 6.11516" stroke="#144E5A" stroke-width="1.2" stroke-linecap="round"/>
<path d="M8.32096 1C9.34608 1.353 9.11464 2.46148 8.32096 3.19222C7.52727 3.92296 7.46492 5.15009 8.32096 5.74981" stroke="#144E5A" stroke-width="1.2" stroke-linecap="round"/>
<path d="M10.7019 1C11.7271 1.353 11.4956 2.46148 10.7019 3.19222C9.90825 3.92296 9.8459 5.15009 10.7019 5.74981" stroke="#144E5A" stroke-width="1.2" stroke-linecap="round"/>
</svg>
