<svg width="20" height="20" viewBox="0 0 20 20" fill="none" xmlns="http://www.w3.org/2000/svg">
<g clip-path="url(#clip0_50_445)">
<path d="M0.5 6V16C0.856446 17.1119 1.43661 17.4104 3 17.5H17C18.5 17.5 19.5 17 19.5 15" stroke="#144E5A" stroke-width="1.5" stroke-linecap="round" stroke-linejoin="round"/>
<path d="M19.5 15.5V7.00002C19.3952 5.26092 18.8343 4.64384 16.5 4.50002C16.0048 3.23086 15.4673 2.88297 14 3.00002H9C8.27763 3.28139 7.96675 3.64833 7.5 4.50002H2C1.21359 4.76954 0.879334 5.08962 0.5 6.00002" stroke="#144E5A" stroke-width="1.5" stroke-linecap="round" stroke-linejoin="round"/>
<path d="M2 4.50003C3.00606 1.98376 6.00297 1.95289 7 4.49998" stroke="#144E5A" stroke-width="1.5" stroke-linecap="round" stroke-linejoin="round"/>
<path d="M2.3 14V8.00001C2.3 5.99999 4.3 6 4.3 8.00001V14C4.3 16 2.3 16 2.3 14Z" stroke="#144E5A" stroke-width="1.5" stroke-linecap="round" stroke-linejoin="round"/>
<path d="M18.3 6.70001C18.3 7.2523 17.8523 7.70001 17.3 7.70001C16.7477 7.70001 16.3 7.2523 16.3 6.70001C16.3 6.14773 16.7477 5.70001 17.3 5.70001C17.8523 5.70001 18.3 6.14773 18.3 6.70001ZM16.7958 6.70001C16.7958 6.97846 17.0216 7.20419 17.3 7.20419C17.5784 7.20419 17.8042 6.97846 17.8042 6.70001C17.8042 6.42156 17.5784 6.19584 17.3 6.19584C17.0216 6.19584 16.7958 6.42156 16.7958 6.70001Z" fill="#144E5A"/>
<path d="M15.7 10.8C15.7 12.733 14.133 14.3 12.2 14.3C10.267 14.3 8.70001 12.733 8.70001 10.8C8.70001 8.86701 10.267 7.3 12.2 7.3C14.133 7.3 15.7 8.86701 15.7 10.8ZM9.65181 10.8C9.65181 12.2073 10.7927 13.3482 12.2 13.3482C13.6073 13.3482 14.7482 12.2073 14.7482 10.8C14.7482 9.39267 13.6073 8.2518 12.2 8.2518C10.7927 8.2518 9.65181 9.39267 9.65181 10.8Z" fill="#144E5A"/>
<path d="M17.4 10.85C17.4 13.7495 15.0495 16.1 12.15 16.1C9.25051 16.1 6.9 13.7495 6.9 10.85C6.9 7.95048 9.25051 5.59998 12.15 5.59998C15.0495 5.59998 17.4 7.95048 17.4 10.85ZM8.32769 10.85C8.32769 12.961 10.039 14.6723 12.15 14.6723C14.261 14.6723 15.9723 12.961 15.9723 10.85C15.9723 8.73897 14.261 7.02767 12.15 7.02767C10.039 7.02767 8.32769 8.73897 8.32769 10.85Z" fill="#144E5A"/>
</g>
<defs>
<clipPath id="clip0_50_445">
<rect width="20" height="20" fill="white"/>
</clipPath>
</defs>
</svg>
