<svg width="24" height="24" viewBox="0 0 24 24" fill="none" xmlns="http://www.w3.org/2000/svg">
<path fill-rule="evenodd" clip-rule="evenodd" d="M4.13306 16.9866C4.13306 16.5724 4.46884 16.2366 4.88306 16.2366H12.1172C12.5314 16.2366 12.8672 16.5724 12.8672 16.9866C12.8672 17.4008 12.5314 17.7366 12.1172 17.7366H4.88306C4.46884 17.7366 4.13306 17.4008 4.13306 16.9866Z" fill="#144E5A"/>
<path fill-rule="evenodd" clip-rule="evenodd" d="M15.2377 14.8565C14.0611 14.8565 13.1077 15.8092 13.1077 16.9865C13.1077 18.1629 14.0613 19.1165 15.2377 19.1165C16.414 19.1165 17.3677 18.1629 17.3677 16.9865C17.3677 15.8092 16.4142 14.8565 15.2377 14.8565ZM11.6077 16.9865C11.6077 14.9803 13.2331 13.3565 15.2377 13.3565C17.2423 13.3565 18.8677 14.9803 18.8677 16.9865C18.8677 18.9913 17.2425 20.6165 15.2377 20.6165C13.2329 20.6165 11.6077 18.9913 11.6077 16.9865Z" fill="#144E5A"/>
<path fill-rule="evenodd" clip-rule="evenodd" d="M11.1326 8.26202C11.1326 7.84781 11.4684 7.51202 11.8826 7.51202H19.1179C19.5321 7.51202 19.8679 7.84781 19.8679 8.26202C19.8679 8.67624 19.5321 9.01202 19.1179 9.01202H11.8826C11.4684 9.01202 11.1326 8.67624 11.1326 8.26202Z" fill="#144E5A"/>
<path fill-rule="evenodd" clip-rule="evenodd" d="M5.13257 8.26214C5.13257 6.25734 6.75777 4.63214 8.76257 4.63214C10.7674 4.63214 12.3926 6.25734 12.3926 8.26214C12.3926 10.2683 10.7672 11.8921 8.76257 11.8921C6.75797 11.8921 5.13257 10.2683 5.13257 8.26214ZM8.76257 6.13214C7.58619 6.13214 6.63257 7.08577 6.63257 8.26214C6.63257 9.43949 7.58599 10.3921 8.76257 10.3921C9.93914 10.3921 10.8926 9.43949 10.8926 8.26214C10.8926 7.08577 9.93894 6.13214 8.76257 6.13214Z" fill="#144E5A"/>
</svg>
