<svg width="21" height="20" viewBox="0 0 21 20" fill="none" xmlns="http://www.w3.org/2000/svg">
<path d="M7.65722 17.8943L7.65722 15.1342C7.6572 14.4322 8.29312 13.8617 9.08101 13.857H11.9671C12.7587 13.857 13.4005 14.4288 13.4005 15.1342V17.9028C13.4003 18.4989 13.9343 18.986 14.603 19H16.5271C18.4451 19 20 17.6146 20 15.9056V8.05405C19.9898 7.38174 19.6355 6.75041 19.038 6.33973L12.4577 1.61677C11.3049 0.79441 9.6662 0.79441 8.51342 1.61677L1.96203 6.3483C1.36226 6.75732 1.00739 7.3897 1 8.06262L1 15.9056C1 17.6146 2.55488 19 4.47291 19H6.39696C7.08235 19 7.63797 18.5049 7.63797 17.8943" stroke="#144E5A" stroke-width="1.5" stroke-linecap="round" stroke-linejoin="round"/>
</svg>
