<svg width="19" height="18" viewBox="0 0 19 18" fill="none" xmlns="http://www.w3.org/2000/svg">
<mask id="path-1-inside-1_289_758" fill="white">
<path d="M0 3.00161V14.9984C0 16.6514 1.08117 18 2.40649 18H10.1801C11.5054 18 12.5866 16.6514 12.5866 14.9984V13.0553C12.5866 12.7266 12.3734 12.4608 12.1099 12.4608C11.8464 12.4608 11.6333 12.7266 11.6333 13.0553V14.9984C11.6333 15.9989 10.9784 16.8158 10.1762 16.8158H2.40649C1.60432 16.8158 0.949419 15.9989 0.949419 14.9984V3.00161C0.949419 2.00107 1.60432 1.18421 2.40649 1.18421H10.1801C10.9823 1.18421 11.6372 2.00107 11.6372 3.00161V4.94468C11.6372 5.27336 11.8503 5.53921 12.1138 5.53921C12.3773 5.53921 12.5905 5.27336 12.5905 4.94468V3.00161C12.5905 1.34855 11.5093 0 10.184 0H2.40649C1.08117 0 0 1.34372 0 3.00161Z"/>
</mask>
<path d="M-5 3.00161V14.9984H5V3.00161H-5ZM-5 14.9984C-5 18.325 -2.65495 23 2.40649 23V13C3.53887 13 4.28298 13.587 4.6073 13.9915C4.92642 14.3895 5 14.7597 5 14.9984H-5ZM2.40649 23H10.1801V13H2.40649V23ZM10.1801 23C15.2415 23 17.5866 18.325 17.5866 14.9984H7.58658C7.58658 14.7597 7.66016 14.3895 7.97928 13.9915C8.30359 13.587 9.04771 13 10.1801 13V23ZM17.5866 14.9984V13.0553H7.58658V14.9984H17.5866ZM17.5866 13.0553C17.5866 11.0531 16.1096 7.46079 12.1099 7.46079V17.4608C10.4582 17.4608 9.22853 16.6137 8.54603 15.7624C7.87182 14.9214 7.58658 13.9471 7.58658 13.0553H17.5866ZM12.1099 7.46079C8.11029 7.46079 6.63329 11.0531 6.63329 13.0553H16.6333C16.6333 13.9471 16.348 14.9214 15.6738 15.7624C14.9913 16.6137 13.7617 17.4608 12.1099 17.4608V7.46079ZM6.63329 13.0553V14.9984H16.6333V13.0553H6.63329ZM6.63329 14.9984C6.63329 14.4327 6.81392 13.7666 7.30452 13.1547C7.80002 12.5367 8.78121 11.8158 10.1762 11.8158V21.8158C14.7145 21.8158 16.6333 17.6725 16.6333 14.9984H6.63329ZM10.1762 11.8158H2.40649V21.8158H10.1762V11.8158ZM2.40649 11.8158C3.80149 11.8158 4.78268 12.5367 5.27819 13.1547C5.76878 13.7666 5.94942 14.4327 5.94942 14.9984H-4.05058C-4.05058 17.6725 -2.1318 21.8158 2.40649 21.8158V11.8158ZM5.94942 14.9984V3.00161H-4.05058V14.9984H5.94942ZM5.94942 3.00161C5.94942 3.56735 5.76878 4.23338 5.27819 4.8453C4.78268 5.46334 3.80149 6.18421 2.40649 6.18421V-3.81579C-2.1318 -3.81579 -4.05058 0.327497 -4.05058 3.00161H5.94942ZM2.40649 6.18421H10.1801V-3.81579H2.40649V6.18421ZM10.1801 6.18421C8.78509 6.18421 7.80389 5.46334 7.30839 4.8453C6.81779 4.23338 6.63716 3.56734 6.63716 3.00161H16.6372C16.6372 0.327502 14.7184 -3.81579 10.1801 -3.81579V6.18421ZM6.63716 3.00161V4.94468H16.6372V3.00161H6.63716ZM6.63716 4.94468C6.63716 6.94695 8.11418 10.5392 12.1138 10.5392V0.539205C13.7656 0.539205 14.9952 1.38632 15.6777 2.2376C16.3519 3.07854 16.6372 4.05293 16.6372 4.94468H6.63716ZM12.1138 10.5392C16.1135 10.5392 17.5905 6.94693 17.5905 4.94468H7.59045C7.59045 4.05294 7.87569 3.07855 8.5499 2.23761C9.2324 1.38632 10.462 0.539205 12.1138 0.539205V10.5392ZM17.5905 4.94468V3.00161H7.59045V4.94468H17.5905ZM17.5905 3.00161C17.5905 -0.325029 15.2454 -5 10.184 -5V5C9.05158 5 8.30747 4.41302 7.98316 4.0085C7.66403 3.61046 7.59045 3.24026 7.59045 3.00161H17.5905ZM10.184 -5H2.40649V5H10.184V-5ZM2.40649 -5C-2.65042 -5 -5 -0.335505 -5 3.00161H5C5 3.23539 4.92781 3.60736 4.6056 4.0088C4.27758 4.41749 3.53275 5 2.40649 5L2.40649 -5Z" fill="#144E5A" mask="url(#path-1-inside-1_289_758)"/>
<mask id="path-3-inside-2_289_758" fill="white">
<path d="M14.935 13.471C15.028 13.587 15.1481 13.645 15.2721 13.645C15.3961 13.645 15.5162 13.587 15.6092 13.471L18.8605 9.41568C19.0465 9.18367 19.0465 8.81149 18.8605 8.57948L15.6092 4.52417C15.4232 4.29216 15.1248 4.29216 14.9388 4.52417C14.7528 4.75617 14.7528 5.12835 14.9388 5.36036L17.3802 8.40548H8.47115C8.20764 8.40548 7.99451 8.67132 7.99451 9C7.99451 9.32868 8.20764 9.59452 8.47115 9.59452H17.3763L14.935 12.6396C14.7489 12.8668 14.7489 13.2438 14.935 13.471Z"/>
</mask>
<path d="M14.935 13.471L18.836 10.3434L18.8199 10.3233L18.8036 10.3034L14.935 13.471ZM15.6092 13.471L11.7082 10.3434L11.7082 10.3434L15.6092 13.471ZM18.8605 9.41568L22.7616 12.5433L22.7616 12.5433L18.8605 9.41568ZM18.8605 8.57948L22.7616 5.45189L22.7616 5.45189L18.8605 8.57948ZM15.6092 4.52417L11.7082 7.65176L11.7082 7.65176L15.6092 4.52417ZM14.9388 5.36036L11.0378 8.48796L14.9388 5.36036ZM17.3802 8.40548V13.4055H27.7974L21.2812 5.27788L17.3802 8.40548ZM17.3763 9.59452L21.2774 12.7221L27.7935 4.59452H17.3763V9.59452ZM14.935 12.6396L18.8036 15.8072L18.8199 15.7873L18.836 15.7672L14.935 12.6396ZM11.0339 16.5986C11.9716 17.7682 13.4719 18.645 15.2721 18.645V8.645C16.8243 8.645 18.0843 9.40579 18.836 10.3434L11.0339 16.5986ZM15.2721 18.645C17.0723 18.645 18.5726 17.7682 19.5103 16.5986L11.7082 10.3434C12.4599 9.40581 13.7198 8.645 15.2721 8.645V18.645ZM19.5103 16.5986L22.7616 12.5433L14.9595 6.28809L11.7082 10.3434L19.5103 16.5986ZM22.7616 12.5433C24.4128 10.4836 24.4128 7.51153 22.7616 5.45189L14.9595 11.7071C14.2469 10.8183 14 9.82324 14 8.99758C14 8.17193 14.2469 7.1769 14.9595 6.28809L22.7616 12.5433ZM22.7616 5.45189L19.5103 1.39657L11.7082 7.65176L14.9595 11.7071L22.7616 5.45189ZM19.5103 1.39657C18.5767 0.232125 17.0774 -0.649841 15.274 -0.649841C13.4707 -0.649841 11.9714 0.232125 11.0378 1.39657L18.8399 7.65176C18.0923 8.5842 16.8352 9.35016 15.274 9.35016C13.7129 9.35016 12.4558 8.5842 11.7082 7.65176L19.5103 1.39657ZM11.0378 1.39657C9.3865 3.45621 9.3865 6.42831 11.0378 8.48796L18.8399 2.23277C19.5525 3.12158 19.7993 4.11661 19.7993 4.94226C19.7993 5.76792 19.5525 6.76295 18.8399 7.65176L11.0378 1.39657ZM11.0378 8.48796L13.4791 11.5331L21.2812 5.27788L18.8399 2.23277L11.0378 8.48796ZM17.3802 3.40548H8.47115V13.4055H17.3802V3.40548ZM8.47115 3.40548C4.47152 3.40548 2.99451 6.99773 2.99451 9H12.9945C12.9945 9.89175 12.7093 10.8661 12.0351 11.7071C11.3525 12.5584 10.1229 13.4055 8.47115 13.4055V3.40548ZM2.99451 9C2.99451 11.0022 4.47151 14.5945 8.47115 14.5945V4.59452C10.1229 4.59452 11.3526 5.44164 12.0351 6.29292C12.7093 7.13386 12.9945 8.10825 12.9945 9H2.99451ZM8.47115 14.5945H17.3763V4.59452H8.47115V14.5945ZM13.4753 6.46693L11.0339 9.51204L18.836 15.7672L21.2774 12.7221L13.4753 6.46693ZM11.0663 9.47204C9.37182 11.5416 9.37182 14.5691 11.0663 16.6386L18.8036 10.3034C19.5542 11.2201 19.7954 12.2416 19.7954 13.0553C19.7954 13.8691 19.5542 14.8905 18.8036 15.8072L11.0663 9.47204Z" fill="#144E5A" mask="url(#path-3-inside-2_289_758)"/>
</svg>
