<svg width="21" height="18" viewBox="0 0 21 18" fill="none" xmlns="http://www.w3.org/2000/svg">
<path d="M13.6127 11.5C13.6127 14.6456 10.9411 17.25 7.57694 17.25C4.21278 17.25 1.54123 14.6456 1.54123 11.5C1.54123 8.35444 4.21278 5.75 7.57694 5.75C10.9411 5.75 13.6127 8.35444 13.6127 11.5Z" stroke="#00A3FF" stroke-width="1.5"/>
<path d="M20.6047 1.7095C20.6317 1.3051 20.3114 0.954485 19.8894 0.926376L13.0123 0.468325C12.5903 0.440216 12.2264 0.745258 12.1994 1.14965C12.1725 1.55405 12.4928 1.90467 12.9148 1.93277L19.0277 2.33993L18.6376 8.19773C18.6106 8.60212 18.9309 8.95274 19.3529 8.98085C19.7749 9.00895 20.1389 8.70391 20.1658 8.29952L20.6047 1.7095ZM12.7806 8.55375L20.3465 2.21235L19.3348 1.10485L11.7689 7.44625L12.7806 8.55375Z" fill="#00A3FF"/>
</svg>
