<svg width="19" height="18" viewBox="0 0 19 18" fill="none" xmlns="http://www.w3.org/2000/svg">
<g clip-path="url(#clip0_9_87)">
<path d="M7.6974 1.4198C8.435 -0.0523649 10.5662 -0.0523677 11.3039 1.41979L12.5787 3.96406C12.8716 4.54866 13.4378 4.95385 14.0928 5.04759L16.9433 5.45557C18.5927 5.69166 19.2513 7.68819 18.0578 8.83408L15.9951 10.8145C15.5212 11.2696 15.3049 11.9252 15.4168 12.5677L15.9037 15.3641C16.1855 16.9822 14.4613 18.2161 12.986 17.4522L10.4364 16.1319C9.8506 15.8285 9.1507 15.8285 8.5649 16.1319L6.01525 17.4522C4.54001 18.2161 2.81579 16.9822 3.09754 15.3641L3.58447 12.5677C3.69635 11.9252 3.48008 11.2696 3.00614 10.8146L0.943454 8.83408C-0.250056 7.68819 0.408535 5.69166 2.05792 5.45557L4.90849 5.04759C5.56345 4.95385 6.12965 4.54866 6.4226 3.96406L7.6974 1.4198Z" fill="#EFB447"/>
</g>
<defs>
<clipPath id="clip0_9_87">
<rect width="19" height="18" fill="white"/>
</clipPath>
</defs>
</svg>
