<svg width="54" height="54" viewBox="0 0 54 54" fill="none" xmlns="http://www.w3.org/2000/svg">
<path d="M18.0034 25.8851C17.3877 25.3309 16.4392 25.3808 15.8851 25.9966C15.3309 26.6123 15.3808 27.5608 15.9966 28.1149L18.0034 25.8851ZM23.3367 32.703L24.3402 31.5881L24.3402 31.5881L23.3367 32.703ZM26.9825 32.3796L28.1665 33.3006L28.1665 33.3006L26.9825 32.3796ZM38.184 20.4209C38.6926 19.767 38.5748 18.8246 37.9209 18.316C37.267 17.8074 36.3246 17.9252 35.816 18.5791L38.184 20.4209ZM27 53.5C41.6355 53.5 53.5 41.6355 53.5 27H50.5C50.5 39.9787 39.9787 50.5 27 50.5V53.5ZM0.5 27C0.5 41.6355 12.3645 53.5 27 53.5V50.5C14.0213 50.5 3.5 39.9787 3.5 27H0.5ZM27 0.5C12.3645 0.5 0.5 12.3645 0.5 27H3.5C3.5 14.0213 14.0213 3.5 27 3.5V0.5ZM27 3.5C39.9787 3.5 50.5 14.0213 50.5 27H53.5C53.5 12.3645 41.6355 0.5 27 0.5V3.5ZM15.9966 28.1149L22.3333 33.818L24.3402 31.5881L18.0034 25.8851L15.9966 28.1149ZM28.1665 33.3006L38.184 20.4209L35.816 18.5791L25.7985 31.4587L28.1665 33.3006ZM22.3333 33.818C24.0593 35.3714 26.7409 35.1335 28.1665 33.3006L25.7985 31.4587C25.4421 31.917 24.7716 31.9764 24.3402 31.5881L22.3333 33.818Z" fill="#22DF64"/>
</svg>
