<svg width="56" height="60" viewBox="0 0 56 60" fill="none" xmlns="http://www.w3.org/2000/svg">
<path d="M0 15H51C53.7614 15 56 17.2386 56 20V55C56 57.7614 53.7614 60 51 60H5C2.23858 60 0 57.7614 0 55V15Z" fill="#7409FF"/>
<path d="M1.00007 8.5C0.699835 14.7484 0.753927 18.2516 1.00007 24.5H5.00007C5.3302 19.471 6.63133 16.5028 5.00007 11C5.28448 11.8906 43.2665 8.33606 47.5001 6.5C51.7336 4.66394 52.0001 1 47.5001 1C43.0001 1 19.048 4.02848 1.00007 8.5Z" fill="#7409FF" stroke="#7409FF" stroke-width="1.5" stroke-linecap="round"/>
<path d="M31 32C21.4348 32 21.9014 43 31 43" stroke="white" stroke-width="2.5" stroke-linecap="round"/>
</svg>
