<svg width="20" height="20" viewBox="0 0 20 20" fill="none" xmlns="http://www.w3.org/2000/svg">
<circle cx="10.5" cy="9.5" r="7.5" fill="#FF0000"/>
<path d="M10.68 6.56C10.384 6.56 10.136 6.468 9.936 6.284C9.744 6.092 9.648 5.856 9.648 5.576C9.648 5.296 9.744 5.064 9.936 4.88C10.136 4.688 10.384 4.592 10.68 4.592C10.976 4.592 11.22 4.688 11.412 4.88C11.612 5.064 11.712 5.296 11.712 5.576C11.712 5.856 11.612 6.092 11.412 6.284C11.22 6.468 10.976 6.56 10.68 6.56ZM11.508 7.352V14H9.828V7.352H11.508Z" fill="white"/>
</svg>
